HIERARCHY
ROOT Hips
{
	OFFSET 0.000000 8.830580 0.000000
	CHANNELS 6 Xposition Yposition Zposition Zrotation Yrotation Xrotation 
	JOINT Spine
	{
		OFFSET 0.000000 0.010000 0.000000
		CHANNELS 3 Zrotation Yrotation Xrotation
		JOINT Spine1
		{
			OFFSET 0.000000 2.459130 0.000000
			CHANNELS 3 Zrotation Yrotation Xrotation
			JOINT Neck
			{
				OFFSET 0.000000 2.484630 0.000000
				CHANNELS 3 Zrotation Yrotation Xrotation
				JOINT Head_virtual
				{
					OFFSET 0.000000 0.000000 0.000000
					CHANNELS 3 Zrotation Yrotation Xrotation
					JOINT Head
					{
						OFFSET 0.000000 0.927525 0.000000
						CHANNELS 3 Zrotation Yrotation Xrotation
						End Site
						{
							OFFSET 0.000000 0.000000 0.000000
						}
					}
				}
				JOINT LeftUpArm_virtual
				{
					OFFSET 0.000000 0.000000 0.000000
					CHANNELS 3 Zrotation Yrotation Xrotation
					JOINT LeftUpArm
					{
						OFFSET 1.248820 0.000000 0.000000
						CHANNELS 3 Zrotation Yrotation Xrotation
						JOINT LeftForeArm
						{
							OFFSET 2.597580 0.000000 0.000000
							CHANNELS 3 Zrotation Yrotation Xrotation
							JOINT LeftHand
							{
								OFFSET 2.455420 0.000000 0.000000
								CHANNELS 3 Zrotation Yrotation Xrotation
								End Site
								{
									OFFSET 0.000000 0.000000 0.000000
								}
							}
						}
					}
				}
				JOINT RightUpArm_virtual
				{
					OFFSET -0.000000 -0.000000 -0.000000
					CHANNELS 3 Zrotation Yrotation Xrotation
					JOINT RightUpArm
					{
						OFFSET -1.248820 -0.000000 -0.000000
						CHANNELS 3 Zrotation Yrotation Xrotation
						JOINT RightForeArm
						{
							OFFSET -2.597580 -0.000000 -0.000000
							CHANNELS 3 Zrotation Yrotation Xrotation
							JOINT RightHand
							{
								OFFSET -2.455420 -0.000000 -0.000000
								CHANNELS 3 Zrotation Yrotation Xrotation
								End Site
								{
									OFFSET 0.000000 0.000000 0.000000
								}
							}
						}
					}
				}
			}
		}
	}
	JOINT LeftUpLeg
	{
		OFFSET 1.271939 0.000000 0.000000
		CHANNELS 3 Zrotation Yrotation Xrotation
		JOINT LeftLowLeg
		{
			OFFSET 0.000000 -4.342910 0.000000
			CHANNELS 3 Zrotation Yrotation Xrotation
			JOINT LeftFoot
			{
				OFFSET 0.000000 -4.487670 0.000000
				CHANNELS 3 Zrotation Yrotation Xrotation
				JOINT LeftToeBase
				{
					OFFSET 0.000000 0.000000 1.515070
					CHANNELS 3 Zrotation Yrotation Xrotation
					End Site
					{
						OFFSET 0.000000 0.000000 0.000000
					}
				}
			}
		}
	}
	JOINT RightUpLeg
	{
		OFFSET -1.271939 0.000000 0.000000
		CHANNELS 3 Zrotation Yrotation Xrotation
		JOINT RightLowLeg
		{
			OFFSET 0.000000 -4.342910 0.000000
			CHANNELS 3 Zrotation Yrotation Xrotation
			JOINT RightFoot
			{
				OFFSET 0.000000 -4.487670 0.000000
				CHANNELS 3 Zrotation Yrotation Xrotation
				JOINT RightToeBase
				{
					OFFSET 0.000000 0.000000 1.515070
					CHANNELS 3 Zrotation Yrotation Xrotation
					End Site
					{
						OFFSET 0.000000 0.000000 0.000000
					}
				}
			}
		}
	}
}
MOTION
Frames: 8
Frame Time: 0.041667
-17.519598 8.986493 34.944932 -175.866373 -7.404967 -160.829762 5.872973 0.303640 -30.886582 -2.168026 0.051758 7.020203 0.000000 0.000000 0.000000 9.553983 6.142506 0.604328 -11.897299 -5.444038 -75.373346 -30.490801 -0.645237 10.616000 -38.326599 -7.779580 31.903015 0.000000 -16.660801 0.000000 2.068530 10.551500 36.834991 30.543200 -4.457420 3.027800 44.391499 -1.802540 23.154699 0.000000 18.285900 0.000000 -0.533266 -4.566410 4.481400 5.317683 -20.070216 -15.405814 0.000000 0.000000 3.763610 0.130274 22.760232 -2.990449 0.000000 0.000000 -10.869180 1.528214 29.362434 -16.789027 0.000000 0.000000 3.351070 -0.255715 -29.800154 4.918615 0.000000 0.000000 -17.973490 
-17.520290 8.986725 34.943033 -175.851847 -7.334891 -160.821140 5.872759 0.307934 -30.883294 -2.159451 0.050359 6.928353 0.000000 0.000000 0.000000 9.599494 6.085026 0.648977 -11.810759 -5.460620 -75.286200 -30.488199 -0.662456 10.583300 -38.469200 -7.798570 31.888000 0.000000 -16.150000 0.000000 3.406480 10.639600 37.684998 30.510401 -4.426200 3.031050 44.598701 -1.788780 22.472300 0.000000 18.112499 0.000000 -0.736980 -4.572400 4.003000 5.302279 -20.001094 -15.341578 0.000000 0.000000 3.680720 0.098723 22.740172 -2.989358 0.000000 0.000000 -10.847330 1.494816 29.487282 -16.807152 0.000000 0.000000 3.359230 -0.264429 -29.848489 4.931386 0.000000 0.000000 -17.970670 
-17.520658 8.986875 34.940945 -175.847921 -7.246699 -160.797708 5.851110 0.280435 -30.867611 -2.095581 0.054681 6.768143 0.000000 0.000000 0.000000 9.598275 6.068952 0.780387 -11.724757 -5.509532 -75.227413 -30.531200 -0.649293 10.585300 -38.617001 -7.709860 31.763000 0.000000 -15.926600 0.000000 4.850070 10.750400 38.006989 30.479900 -4.441680 3.043250 44.787601 -1.801300 21.843399 0.000000 18.119699 0.000000 -1.001550 -4.703320 3.885960 5.262363 -19.873160 -15.286136 0.000000 0.000000 3.601080 0.109207 22.687885 -2.969785 0.000000 0.000000 -10.835560 1.463931 29.543319 -16.812670 0.000000 0.000000 3.332390 -0.271764 -29.819097 4.938008 0.000000 0.000000 -17.928460 
-17.520979 8.986596 34.938585 -175.843328 -7.150475 -160.753654 5.826382 0.247121 -30.872618 -2.016963 0.063006 6.606524 0.000000 0.000000 0.000000 9.609172 6.043162 0.893182 -11.681498 -5.536914 -75.138214 -30.550900 -0.607906 10.566500 -38.843899 -7.564010 31.509003 0.000000 -15.895700 0.000000 6.064160 10.734000 37.666992 30.473801 -4.515790 3.030500 44.938599 -1.762550 21.485701 0.000000 18.204800 0.000000 -0.929914 -5.120270 3.003130 5.226111 -19.729405 -15.258767 0.000000 0.000000 3.538570 0.121158 22.635932 -2.959016 0.000000 0.000000 -10.855130 1.441163 29.547498 -16.825705 0.000000 0.000000 3.287690 -0.285121 -29.733704 4.963527 0.000000 0.000000 -17.965000 
-17.520608 8.986223 34.935383 -175.831708 -7.028947 -160.722755 5.797850 0.202617 -30.895215 -1.901638 0.076773 6.481736 0.000000 0.000000 0.000000 9.589972 6.024386 0.989479 -11.646197 -5.579621 -75.055673 -30.579399 -0.543669 10.555200 -39.057899 -7.341940 31.359009 0.000000 -16.187099 0.000000 7.010020 10.767400 36.708008 30.449600 -4.502160 3.081410 45.136501 -1.783910 21.158001 0.000000 18.339100 0.000000 -1.121180 -5.102530 2.168640 5.165743 -19.483998 -15.206075 0.000000 0.000000 3.487450 0.109171 22.496503 -2.978649 0.000000 0.000000 -10.874110 1.460894 29.485847 -16.806907 0.000000 0.000000 3.243190 -0.325273 -29.572874 4.993905 0.000000 0.000000 -17.965570 
-17.520952 8.986048 34.932154 -175.827007 -6.904311 -160.690873 5.788447 0.194610 -30.932798 -1.850634 0.088116 6.376038 0.000000 0.000000 0.000000 9.678476 5.936818 1.086149 -11.687368 -5.584534 -74.972480 -30.577101 -0.492228 10.570800 -39.312000 -7.090170 31.204010 0.000000 -16.623301 0.000000 7.638220 10.534100 35.790009 30.452499 -4.528050 3.079260 45.311199 -1.818250 21.058399 0.000000 18.595900 0.000000 -1.221300 -5.113800 1.751970 5.096773 -19.262991 -15.160931 0.000000 0.000000 3.448640 0.121069 22.394914 -2.988798 0.000000 0.000000 -10.860790 1.483719 29.372062 -16.770479 0.000000 0.000000 3.175410 -0.387224 -29.353266 5.048073 0.000000 0.000000 -17.996630 
-17.521376 8.985717 34.930633 -175.824316 -6.832888 -160.667201 5.780471 0.152569 -30.918821 -1.787496 0.064174 6.219394 0.000000 0.000000 0.000000 9.696608 5.937532 1.215284 -11.668304 -5.599824 -74.948018 -30.574499 -0.430562 10.590400 -39.646301 -6.818950 30.747986 0.000000 -17.210400 0.000000 7.768900 10.525700 34.203003 30.467199 -4.544260 3.061630 45.480499 -1.883150 21.099001 0.000000 18.873400 0.000000 -1.154540 -5.047130 0.825672 5.048873 -19.097385 -15.162435 0.000000 0.000000 3.466850 0.161943 22.311559 -2.990793 0.000000 0.000000 -10.911160 1.512907 29.243380 -16.749420 0.000000 0.000000 3.136310 -0.399420 -29.171253 5.060852 0.000000 0.000000 -18.000630 
-17.522164 8.985493 34.930224 -175.813036 -6.744836 -160.646042 5.779204 0.128681 -30.871186 -1.712496 0.040666 6.027432 0.000000 0.000000 0.000000 9.738196 5.909753 1.346663 -11.668008 -5.621702 -74.929815 -30.588699 -0.343660 10.593300 -39.985802 -6.531200 30.683990 0.000000 -17.885200 0.000000 7.822830 10.369600 32.806000 30.507500 -4.556050 3.117080 45.561199 -1.958350 21.256800 0.000000 19.413900 0.000000 -1.240790 -5.098610 0.825981 4.999768 -18.913386 -15.185382 0.000000 0.000000 3.529680 0.167971 22.220688 -3.031959 0.000000 0.000000 -10.931140 1.536392 29.136677 -16.754632 0.000000 0.000000 3.135390 -0.438829 -29.001434 5.083851 0.000000 0.000000 -18.009280 
